
<svg xmlns="http://www.w3.org/2000/svg" version="1.1" xmlns:xlink="http://www.w3.org/1999/xlink" preserveAspectRatio="none" x="0px" y="0px" width="500px" height="500px" viewBox="0 0 500 500">
<defs>
<image id="Bitmap_1" x="0" y="0" width="400" height="400" xlink:href="./images/Bitmap_1.png"/>

<filter id="Filter_1" x="-20%" y="-20%" width="140%" height="140%" color-interpolation-filters="sRGB">
<feColorMatrix in="SourceGraphic" type="matrix" values="-0.98 0 0 0 0 0 1 0 0 0 0 0 1 0 0 0 0 0 1 0" result="result1"/>
</filter>

<g id="Layer2_0_FILL">
<path fill="#00BC8C" stroke="none" d="
M 157.45 90.45
Q 100.15 90.5 59.6 131.05 19.1 171.55 19.05 228.85 19.1 286.15 59.6 326.65 100.1 367.2 157.4 367.2 214.75 367.2 255.2 326.6 295.85 286.1 295.8 228.8 295.85 171.55 255.25 131 214.7 90.5 157.45 90.45
M 235.45 171.6
Q 232.7 174.35 228.75 174.3 224.9 174.3 222.15 171.65 219.45 168.85 219.35 165 219.4 161.05 222.15 158.3 224.9 155.55 228.8 155.5 232.7 155.55 235.45 158.3 238.2 161 238.15 164.95 238.2 168.8 235.45 171.6
M 90.85 174.35
Q 87 174.3 84.25 171.55 81.5 168.9 81.45 164.95 81.5 161.05 84.25 158.25 87 155.5 90.9 155.55 94.8 155.55 97.55 158.25 100.25 161 100.3 164.95 100.3 168.85 97.55 171.6 94.8 174.35 90.85 174.35
M 146.7 185.55
Q 162.2 195.85 179.5 185.55 162.2 195.85 146.7 185.55 Z"/>

<path fill="#FFFFFF" stroke="none" d="
M 84.25 171.55
Q 87 174.3 90.85 174.35 94.8 174.35 97.55 171.6 100.3 168.85 100.3 164.95 100.25 161 97.55 158.25 94.8 155.55 90.9 155.55 87 155.5 84.25 158.25 81.5 161.05 81.45 164.95 81.5 168.9 84.25 171.55
M 228.75 174.3
Q 232.7 174.35 235.45 171.6 238.2 168.8 238.15 164.95 238.2 161 235.45 158.3 232.7 155.55 228.8 155.5 224.9 155.55 222.15 158.3 219.4 161.05 219.35 165 219.45 168.85 222.15 171.65 224.9 174.3 228.75 174.3 Z"/>
</g>

<path id="Layer2_0_1_STROKES" stroke="#FFFFFF" stroke-width="5" stroke-linejoin="round" stroke-linecap="round" fill="none" d="
M 146.7 185.55
Q 162.2 195.85 179.5 185.55"/>
</defs>

<g id="Layer_1">
<g transform="matrix( 1, 0, 0, 1, 0,0) ">
<use xlink:href="#Layer2_0_FILL"/>

<use xlink:href="#Layer2_0_1_STROKES"/>
</g>
</g>

<g id="Layer_2">
<g transform="matrix( 0.79949951171875, 0, 0, 0.79949951171875, 137.8,64.6) ">
<g transform="matrix( -0.923492431640625, 0.30084228515625, 0.2901611328125, 0.8907470703125, 369.4,0) " filter="url(#Filter_1)">
<use xlink:href="#Bitmap_1"/>
</g>
</g>
</g>

<g id="Layer_3"/>
</svg>
