
<svg xmlns="http://www.w3.org/2000/svg" version="1.1" xmlns:xlink="http://www.w3.org/1999/xlink" preserveAspectRatio="none" x="0px" y="0px" width="500px" height="500px" viewBox="0 0 500 500">
<defs>
<g id="Layer5_0_FILL">
<path fill="#444444" stroke="none" d="
M 397.25 328.1
L 397.25 337.75 189 337.75 167.35 363 159.2 363 159.2 372.55 377.1 372.55 406.9 337.75 406.9 328.1 397.25 328.1 Z"/>
</g>

<g id="Layer4_0_FILL">
<path fill="#666666" stroke="none" d="
M 377.1 363
L 406.9 328.2 189 328.2 159.2 363 377.1 363 Z"/>
</g>

<g id="Layer3_0_FILL">
<path fill="#666666" stroke="none" d="
M 439.45 311.95
L 439.45 123.9 138.35 123.9 138.35 311.95 439.45 311.95
M 425.9 137.5
L 425.9 298.45 151.85 298.45 151.85 137.5 425.9 137.5 Z"/>

<path fill="#000000" stroke="none" d="
M 425.9 298.45
L 425.9 137.5 151.85 137.5 151.85 298.45 425.9 298.45 Z"/>
</g>

<g id="Layer2_0_FILL">
<path fill="#00BC8C" stroke="none" d="
M 248.65 269.05
Q 248.65 277.9 254.9 284.15 261.15 290.4 270 290.4 278.85 290.4 285.1 284.15 291.35 277.9 291.35 269.05 291.35 260.2 285.1 253.95 278.85 247.7 270 247.7 261.15 247.7 254.9 253.95 248.65 260.2 248.65 269.05
M 57.15 244.65
Q 57.15 235.8 50.9 229.55 44.65 223.3 35.8 223.3 26.95 223.3 20.7 229.55 14.45 235.8 14.45 244.65 14.45 253.5 20.7 259.75 26.95 266 35.8 266 44.65 266 50.9 259.75 57.15 253.5 57.15 244.65 Z"/>
</g>

<g id="Layer1_0_FILL">
<path fill="#00BC8C" stroke="none" d="
M 139.25 259.5
Q 98.8 259.5 70.2 288.1 41.6 316.7 41.6 357.15 41.6 397.6 70.2 426.2 98.8 454.8 139.25 454.8 179.7 454.8 208.3 426.2 236.9 397.6 236.9 357.15 236.9 316.7 208.3 288.1 179.7 259.5 139.25 259.5 Z"/>
</g>

<g id="Layer0_0_FILL">
<path fill="#FF0000" stroke="none" d="
M 362.9 166.7
Q 362.25234375 166.05234375 361.55 165.5
L 334.65 180.65
Q 335.352734375 186.152734375 339.4 190.2 344.25 195.05 351.15 195.05 358.05 195.05 362.9 190.2 367.75 185.35 367.75 178.45 367.75 171.55 362.9 166.7
M 213.4 176.4
Q 213.4 183.75 218.6 188.95 223.8 194.15 231.15 194.15 238.5 194.15 243.7 188.95 246.1068359375 186.5431640625 247.4 183.65
L 215.7 167.6
Q 213.4 171.531640625 213.4 176.4 Z"/>

<path fill="#FFFFFF" stroke="none" d="
M 159.95 328.6
Q 149.95 318.6 135.75 318.6 121.5 318.6 111.4 328.6 102.25 337.85 101.55 350.5
L 169.95 350.5
Q 169.2 337.85 159.95 328.6
M 183.15 309.65
Q 183.15 308.55 182.35 307.75 181.55 306.95 180.45 306.95 179.35 306.95 178.55 307.75 177.75 308.55 177.75 309.65 177.75 310.75 178.55 311.55 179.35 312.35 180.45 312.35 181.55 312.35 182.35 311.55 183.15 310.75 183.15 309.65
M 95.85 306.95
Q 94.75 306.95 93.95 307.75 93.15 308.55 93.15 309.65 93.15 310.75 93.95 311.55 94.75 312.35 95.85 312.35 96.95 312.35 97.75 311.55 98.55 310.75 98.55 309.65 98.55 308.55 97.75 307.75 96.95 306.95 95.85 306.95 Z"/>
</g>

<path id="Layer0_0_1_STROKES" stroke="#FFFFFF" stroke-width="2" stroke-linejoin="round" stroke-linecap="round" fill="none" d="
M 111.4 328.6
Q 121.5 318.6 135.75 318.6 149.95 318.6 159.95 328.6 169.2 337.85 169.95 350.5
L 101.55 350.5
Q 102.25 337.85 111.4 328.6 Z
M 94.1 300.5
Q 87.8556640625 302.3 85.95 309.2
M 94.8 304.35
Q 90.99921875 305.123828125 90 309.45
M 181.5 304.35
Q 185.3 305.1 186.3 309.45
M 182.2 300.5
Q 188.45 302.3 190.35 309.2"/>

<path id="Layer0_0_2_STROKES" stroke="#FF0000" stroke-width="2" stroke-linejoin="round" stroke-linecap="round" fill="none" d="
M 361.575 165.5
Q 362.25234375 166.05234375 362.9 166.7 367.75 171.55 367.75 178.45 367.75 185.35 362.9 190.2 358.05 195.05 351.15 195.05 344.25 195.05 339.4 190.2 335.352734375 186.152734375 334.675 180.675
L 312.85 193
M 334.675 180.675
L 361.575 165.5 382.45 153.7
M 200.75 160
L 208.2 163.775
Q 211.0130859375 165.2048828125 213.825 166.625
L 214.75 167.1 215.7 167.575 215.7 167.6 247.4 183.675 263.1 191.65
M 214.75 167.1
L 215.7 167.6
Q 213.4 171.531640625 213.4 176.4 213.4 183.75 218.6 188.95 223.8 194.15 231.15 194.15 238.5 194.15 243.7 188.95 246.1068359375 186.5431640625 247.4 183.675
M 233.3 224.65
Q 282.9458984375 258.5201171875 339.5 224.65"/>
</defs>

<g id="Layer_4">
<g transform="matrix( 1, 0, 0, 1, 0,0) ">
<use xlink:href="#Layer5_0_FILL"/>
</g>
</g>

<g id="Layer_5">
<g transform="matrix( 1, 0, 0, 1, 0,0) ">
<use xlink:href="#Layer4_0_FILL"/>
</g>
</g>

<g id="Layer_2">
<g transform="matrix( 1, 0, 0, 1, 0,0) ">
<use xlink:href="#Layer3_0_FILL"/>
</g>
</g>

<g id="Layer_6">
<g transform="matrix( 1, 0, 0, 1, 0,0) ">
<use xlink:href="#Layer2_0_FILL"/>
</g>
</g>

<g id="Layer_1">
<g transform="matrix( 1, 0, 0, 1, 0,0) ">
<use xlink:href="#Layer1_0_FILL"/>
</g>
</g>

<g id="Layer_3">
<g transform="matrix( 1, 0, 0, 1, 0,0) ">
<use xlink:href="#Layer0_0_FILL"/>

<use xlink:href="#Layer0_0_1_STROKES"/>

<use xlink:href="#Layer0_0_2_STROKES"/>
</g>
</g>
</svg>
